<svg width="310" height="310" viewBox="0 0 310 310" fill="none" xmlns="http://www.w3.org/2000/svg">
<circle cx="155" cy="155" r="155" fill="#27AE60"/>
<circle cx="155" cy="155" r="150" fill="#191D2B"/>
<path d="M60.29 148.24C60.29 139.227 62.24 131.21 66.14 124.19C70.04 117.083 75.4567 111.58 82.39 107.68C89.41 103.693 97.34 101.7 106.18 101.7C117.013 101.7 126.287 104.56 134 110.28C141.713 116 146.87 123.8 149.47 133.68H125.03C123.21 129.867 120.61 126.963 117.23 124.97C113.937 122.977 110.167 121.98 105.92 121.98C99.0733 121.98 93.5267 124.363 89.28 129.13C85.0333 133.897 82.91 140.267 82.91 148.24C82.91 156.213 85.0333 162.583 89.28 167.35C93.5267 172.117 99.0733 174.5 105.92 174.5C110.167 174.5 113.937 173.503 117.23 171.51C120.61 169.517 123.21 166.613 125.03 162.8H149.47C146.87 172.68 141.713 180.48 134 186.2C126.287 191.833 117.013 194.65 106.18 194.65C97.34 194.65 89.41 192.7 82.39 188.8C75.4567 184.813 70.04 179.31 66.14 172.29C62.24 165.27 60.29 157.253 60.29 148.24Z" fill="#FEFEFE"/>
<path d="M215.97 194L185.29 153.7V194H163.06V102.74H185.29V142.78L215.71 102.74H241.84L206.48 147.46L243.14 194H215.97Z" fill="#27AE60"/>
<path d="M67.155 222.68C67.155 220.253 67.68 218.095 68.73 216.205C69.78 214.292 71.2383 212.81 73.105 211.76C74.995 210.687 77.13 210.15 79.51 210.15C82.4267 210.15 84.9233 210.92 87 212.46C89.0767 214 90.465 216.1 91.165 218.76H84.585C84.095 217.733 83.395 216.952 82.485 216.415C81.5983 215.878 80.5833 215.61 79.44 215.61C77.5967 215.61 76.1033 216.252 74.96 217.535C73.8167 218.818 73.245 220.533 73.245 222.68C73.245 224.827 73.8167 226.542 74.96 227.825C76.1033 229.108 77.5967 229.75 79.44 229.75C80.5833 229.75 81.5983 229.482 82.485 228.945C83.395 228.408 84.095 227.627 84.585 226.6H91.165C90.465 229.26 89.0767 231.36 87 232.9C84.9233 234.417 82.4267 235.175 79.51 235.175C77.13 235.175 74.995 234.65 73.105 233.6C71.2383 232.527 69.78 231.045 68.73 229.155C67.68 227.265 67.155 225.107 67.155 222.68ZM103.72 235.28C101.807 235.28 100.08 234.872 98.5402 234.055C97.0235 233.238 95.8218 232.072 94.9352 230.555C94.0718 229.038 93.6402 227.265 93.6402 225.235C93.6402 223.228 94.0835 221.467 94.9702 219.95C95.8568 218.41 97.0702 217.232 98.6102 216.415C100.15 215.598 101.877 215.19 103.79 215.19C105.703 215.19 107.43 215.598 108.97 216.415C110.51 217.232 111.723 218.41 112.61 219.95C113.497 221.467 113.94 223.228 113.94 225.235C113.94 227.242 113.485 229.015 112.575 230.555C111.688 232.072 110.463 233.238 108.9 234.055C107.36 234.872 105.633 235.28 103.72 235.28ZM103.72 230.1C104.863 230.1 105.832 229.68 106.625 228.84C107.442 228 107.85 226.798 107.85 225.235C107.85 223.672 107.453 222.47 106.66 221.63C105.89 220.79 104.933 220.37 103.79 220.37C102.623 220.37 101.655 220.79 100.885 221.63C100.115 222.447 99.7302 223.648 99.7302 225.235C99.7302 226.798 100.103 228 100.85 228.84C101.62 229.68 102.577 230.1 103.72 230.1ZM126.005 235.28C124.092 235.28 122.365 234.872 120.825 234.055C119.309 233.238 118.107 232.072 117.22 230.555C116.357 229.038 115.925 227.265 115.925 225.235C115.925 223.228 116.369 221.467 117.255 219.95C118.142 218.41 119.355 217.232 120.895 216.415C122.435 215.598 124.162 215.19 126.075 215.19C127.989 215.19 129.715 215.598 131.255 216.415C132.795 217.232 134.009 218.41 134.895 219.95C135.782 221.467 136.225 223.228 136.225 225.235C136.225 227.242 135.77 229.015 134.86 230.555C133.974 232.072 132.749 233.238 131.185 234.055C129.645 234.872 127.919 235.28 126.005 235.28ZM126.005 230.1C127.149 230.1 128.117 229.68 128.91 228.84C129.727 228 130.135 226.798 130.135 225.235C130.135 223.672 129.739 222.47 128.945 221.63C128.175 220.79 127.219 220.37 126.075 220.37C124.909 220.37 123.94 220.79 123.17 221.63C122.4 222.447 122.015 223.648 122.015 225.235C122.015 226.798 122.389 228 123.135 228.84C123.905 229.68 124.862 230.1 126.005 230.1ZM145.385 209.1V235H139.4V209.1H145.385Z" fill="white"/>
<path d="M171.415 235L163.155 224.15V235H157.17V210.43H163.155V221.21L171.345 210.43H178.38L168.86 222.47L178.73 235H171.415ZM184.584 213.44C183.534 213.44 182.671 213.137 181.994 212.53C181.341 211.9 181.014 211.13 181.014 210.22C181.014 209.287 181.341 208.517 181.994 207.91C182.671 207.28 183.534 206.965 184.584 206.965C185.611 206.965 186.451 207.28 187.104 207.91C187.781 208.517 188.119 209.287 188.119 210.22C188.119 211.13 187.781 211.9 187.104 212.53C186.451 213.137 185.611 213.44 184.584 213.44ZM187.559 215.47V235H181.574V215.47H187.559ZM190.707 225.2C190.707 223.193 191.08 221.432 191.827 219.915C192.597 218.398 193.635 217.232 194.942 216.415C196.248 215.598 197.707 215.19 199.317 215.19C200.6 215.19 201.767 215.458 202.817 215.995C203.89 216.532 204.73 217.255 205.337 218.165V209.1H211.322V235H205.337V232.2C204.777 233.133 203.972 233.88 202.922 234.44C201.895 235 200.693 235.28 199.317 235.28C197.707 235.28 196.248 234.872 194.942 234.055C193.635 233.215 192.597 232.037 191.827 230.52C191.08 228.98 190.707 227.207 190.707 225.2ZM205.337 225.235C205.337 223.742 204.917 222.563 204.077 221.7C203.26 220.837 202.257 220.405 201.067 220.405C199.877 220.405 198.862 220.837 198.022 221.7C197.205 222.54 196.797 223.707 196.797 225.2C196.797 226.693 197.205 227.883 198.022 228.77C198.862 229.633 199.877 230.065 201.067 230.065C202.257 230.065 203.26 229.633 204.077 228.77C204.917 227.907 205.337 226.728 205.337 225.235ZM214.461 225.2C214.461 223.193 214.835 221.432 215.581 219.915C216.351 218.398 217.39 217.232 218.696 216.415C220.003 215.598 221.461 215.19 223.071 215.19C224.355 215.19 225.521 215.458 226.571 215.995C227.645 216.532 228.485 217.255 229.091 218.165V209.1H235.076V235H229.091V232.2C228.531 233.133 227.726 233.88 226.676 234.44C225.65 235 224.448 235.28 223.071 235.28C221.461 235.28 220.003 234.872 218.696 234.055C217.39 233.215 216.351 232.037 215.581 230.52C214.835 228.98 214.461 227.207 214.461 225.2ZM229.091 225.235C229.091 223.742 228.671 222.563 227.831 221.7C227.015 220.837 226.011 220.405 224.821 220.405C223.631 220.405 222.616 220.837 221.776 221.7C220.96 222.54 220.551 223.707 220.551 225.2C220.551 226.693 220.96 227.883 221.776 228.77C222.616 229.633 223.631 230.065 224.821 230.065C226.011 230.065 227.015 229.633 227.831 228.77C228.671 227.907 229.091 226.728 229.091 225.235ZM248.296 235.28C246.383 235.28 244.656 234.872 243.116 234.055C241.6 233.238 240.398 232.072 239.511 230.555C238.648 229.038 238.216 227.265 238.216 225.235C238.216 223.228 238.66 221.467 239.546 219.95C240.433 218.41 241.646 217.232 243.186 216.415C244.726 215.598 246.453 215.19 248.366 215.19C250.28 215.19 252.006 215.598 253.546 216.415C255.086 217.232 256.3 218.41 257.186 219.95C258.073 221.467 258.516 223.228 258.516 225.235C258.516 227.242 258.061 229.015 257.151 230.555C256.265 232.072 255.04 233.238 253.476 234.055C251.936 234.872 250.21 235.28 248.296 235.28ZM248.296 230.1C249.44 230.1 250.408 229.68 251.201 228.84C252.018 228 252.426 226.798 252.426 225.235C252.426 223.672 252.03 222.47 251.236 221.63C250.466 220.79 249.51 220.37 248.366 220.37C247.2 220.37 246.231 220.79 245.461 221.63C244.691 222.447 244.306 223.648 244.306 225.235C244.306 226.798 244.68 228 245.426 228.84C246.196 229.68 247.153 230.1 248.296 230.1Z" fill="#27AE60"/>
</svg>
